<?xml version="1.0" encoding="UTF-8" standalone="no" ?>
<!DOCTYPE svg PUBLIC "-//W3C//DTD SVG 1.1//EN" "http://www.w3.org/Graphics/SVG/1.1/DTD/svg11.dtd">
<svg version="1.1" xmlns="http://www.w3.org/2000/svg" xmlns:xlink="http://www.w3.org/1999/xlink" preserveAspectRatio="xMidYMid meet" viewBox="0 0 160 306" width="160" height="306">
  <defs>
    <path d="M12.77 297.19L12.56 296.61L12.37 296.05L12.21 295.5L12.07 294.96L11.95 294.44L11.85 293.93L11.78 293.43L11.73 292.95L11.71 292.48L11.7 292.03L11.72 291.59L11.77 291.16L11.83 290.74L11.92 290.34L12.03 289.95L12.17 289.58L12.33 289.22L12.51 288.87L12.72 288.54L12.94 288.22L13.19 287.91L13.47 287.62L13.77 287.34L14.09 287.07L14.43 286.82L14.8 286.58L15.19 286.35L15.6 286.14L16.03 285.94L16.49 285.75L16.97 285.58L17.48 285.42L18.01 285.28L18.56 285.15L19.13 285.03L19.73 284.92L20.35 284.83L22.26 284.55L24.14 284.23L26 283.86L27.83 283.45L29.63 282.99L31.4 282.48L33.15 281.93L34.87 281.34L36.56 280.7L38.23 280.01L39.87 279.28L41.49 278.5L43.07 277.68L44.63 276.82L46.17 275.9L47.67 274.95L49.15 273.95L50.61 272.9L52.03 271.81L53.43 270.67L54.8 269.49L56.15 268.26L57.47 266.99L58.76 265.67L60.02 264.31L61.26 262.9L62.47 261.44L63.66 259.95L64.82 258.4L65.95 256.81L66.81 255.54L64.83 255.2L62.79 254.79L60.78 254.33L58.8 253.84L56.86 253.3L54.95 252.71L53.07 252.08L51.23 251.41L49.42 250.69L47.65 249.93L45.91 249.12L44.2 248.27L42.53 247.38L40.88 246.44L39.28 245.45L37.71 244.42L36.17 243.35L34.66 242.24L33.19 241.07L31.75 239.87L30.35 238.62L28.97 237.33L27.64 235.99L26.33 234.61L25.06 233.18L23.83 231.71L22.62 230.19L21.46 228.63L20.32 227.03L19.22 225.38L18.15 223.69L17.12 221.95L16.12 220.17L15.15 218.35L14.21 216.48L13.31 214.56L12.45 212.61L11.62 210.6L10.48 207.56L9.5 204.52L8.67 201.46L8 198.41L7.47 195.34L7.08 192.27L6.82 189.2L6.68 186.11L6.66 183.03L6.76 179.93L6.96 176.83L7.26 173.73L7.66 170.62L8.14 167.51L8.7 164.39L9.34 161.26L10.05 158.13L10.83 154.99L11.65 151.85L12.53 148.71L13.46 145.56L14.42 142.41L15.41 139.25L16.43 136.08L17.47 132.91L18.52 129.74L19.58 126.57L20.64 123.38L21.7 120.2L22.74 117.01L23.77 113.82L24.77 110.62L25.74 107.42L26.68 104.22L27.58 101.01L28.42 97.8L29.21 94.58L29.94 91.36L30.6 88.14L31.19 84.92L31.55 82.77L31.88 80.64L32.18 78.52L32.47 76.41L32.72 74.32L32.96 72.24L33.16 70.17L33.35 68.11L33.51 66.07L33.64 64.04L33.75 62.02L33.84 60.02L33.9 58.02L33.93 56.04L33.95 54.08L33.93 52.12L33.9 50.18L33.84 48.25L33.75 46.33L33.64 44.43L33.51 42.54L33.35 40.66L33.16 38.79L32.96 36.94L32.72 35.1L32.47 33.27L32.18 31.45L31.88 29.65L31.55 27.86L31.19 26.08L30.81 24.32L30.41 22.56L29.98 20.82L29.53 19.1L29.05 17.38L28.55 15.68L28.02 13.99L27.47 12.32L26.9 10.65L26.3 9L133.7 9L133.1 10.65L132.53 12.32L131.98 13.99L131.45 15.68L130.95 17.38L130.47 19.1L130.02 20.82L129.59 22.56L129.19 24.32L128.81 26.08L128.45 27.86L128.12 29.65L127.82 31.45L127.53 33.27L127.28 35.1L127.04 36.94L126.84 38.79L126.65 40.66L126.49 42.54L126.36 44.43L126.25 46.33L126.16 48.25L126.1 50.18L126.07 52.12L126.05 54.08L126.07 56.04L126.1 58.02L126.16 60.02L126.25 62.02L126.36 64.04L126.49 66.07L126.65 68.11L126.84 70.17L127.04 72.24L127.28 74.32L127.53 76.41L127.82 78.52L128.12 80.64L128.45 82.77L128.81 84.92L129.4 88.14L130.06 91.36L130.79 94.58L131.58 97.8L132.42 101.01L133.32 104.22L134.26 107.42L135.23 110.62L136.23 113.82L137.26 117.01L138.3 120.2L139.36 123.38L140.42 126.57L141.48 129.74L142.53 132.91L143.57 136.08L144.59 139.25L145.58 142.41L146.54 145.56L147.47 148.71L148.35 151.85L149.17 154.99L149.95 158.13L150.66 161.26L151.3 164.39L151.86 167.51L152.34 170.62L152.74 173.73L153.04 176.83L153.24 179.93L153.34 183.03L153.32 186.11L153.18 189.2L152.92 192.27L152.53 195.34L152 198.41L151.33 201.46L150.5 204.52L149.52 207.56L148.38 210.6L147.55 212.61L146.69 214.56L145.79 216.48L144.85 218.35L143.88 220.17L142.88 221.95L141.85 223.69L140.78 225.38L139.68 227.03L138.54 228.63L137.38 230.19L136.17 231.71L134.94 233.18L133.67 234.61L132.36 235.99L131.03 237.33L129.65 238.62L128.25 239.87L126.81 241.07L125.34 242.24L123.83 243.35L122.29 244.42L120.72 245.45L119.12 246.44L117.47 247.38L115.8 248.27L114.09 249.12L112.35 249.93L110.58 250.69L108.77 251.41L106.93 252.08L105.05 252.71L103.14 253.3L101.2 253.84L99.22 254.33L97.21 254.79L95.17 255.2L93.2 255.54L94.05 256.81L95.18 258.4L96.34 259.95L97.53 261.44L98.74 262.9L99.98 264.31L101.24 265.67L102.53 266.99L103.85 268.26L105.2 269.49L106.57 270.67L107.97 271.81L109.39 272.9L110.85 273.95L112.33 274.95L113.83 275.9L115.37 276.82L116.93 277.68L118.51 278.5L120.13 279.28L121.77 280.01L123.44 280.7L125.13 281.34L126.85 281.93L128.6 282.48L130.37 282.99L132.17 283.45L134 283.86L135.86 284.23L137.74 284.55L139.65 284.83L140.27 284.92L140.87 285.03L141.44 285.15L141.99 285.28L142.52 285.42L143.03 285.58L143.51 285.75L143.97 285.94L144.4 286.14L144.81 286.35L145.2 286.58L145.57 286.82L145.91 287.07L146.23 287.34L146.53 287.62L146.81 287.91L147.06 288.22L147.28 288.54L147.49 288.87L147.67 289.22L147.83 289.58L147.97 289.95L148.08 290.34L148.17 290.74L148.23 291.16L148.28 291.59L148.3 292.03L148.29 292.48L148.27 292.95L148.22 293.43L148.15 293.93L148.05 294.44L147.93 294.96L147.79 295.5L147.63 296.05L147.44 296.61L147.23 297.19L146.99 297.78L146.74 298.38L146.46 299L13.54 299L13.26 298.38L13.01 297.78L13.01 297.78L12.77 297.19Z" id="b6DPC8ptcu"></path>
    <path d="M31.57 179.82L148.95 179.82" id="bJWhcHCy"></path>
  </defs>
  <g>
    <g>
      <g>
        <g>
          <use xlink:href="#b6DPC8ptcu" opacity="1" fill-opacity="0" stroke="#000000" stroke-width="12" stroke-opacity="1"></use>
        </g>
      </g>
      <g>
        <g>
          <use xlink:href="#bJWhcHCy" opacity="1" fill-opacity="0" stroke="#000000" stroke-width="12" stroke-opacity="1"></use>
        </g>
      </g>
    </g>
  </g>
</svg>